<svg version="1.1" xmlns="http://www.w3.org/2000/svg" viewBox="278.82 278.82 642.38 642.38"> <path d="m599.31 278.84c-2.6953 0.10547-5.3359 0.78125-7.75 1.9922l-302.29 151.14c-13.906 6.9688-13.906 26.816 0 33.785l117.34 58.672-117.34 58.672c-13.926 6.9648-13.926 26.836 0 33.801l117.34 58.672-117.34 58.672c-13.926 6.9648-13.926 26.836 0 33.801l302.29 151.14c5.3164 2.6562 11.57 2.6562 16.887 0l302.29-151.14c13.926-6.9648 13.926-26.836 0-33.801l-117.34-58.672 117.34-58.672c13.926-6.9648 13.926-26.836 0-33.801l-117.34-58.672 117.34-58.672c13.906-6.9688 13.906-26.816 0-33.785l-302.29-151.14c-2.832-1.418-5.9727-2.1055-9.1367-1.9922zm0.69531 40 260.06 130.02-260.06 130.02-260.06-130.02zm-151.14 226.71 142.7 71.352c5.3164 2.6562 11.57 2.6562 16.887 0l142.7-71.352 108.9 54.449-260.04 130.02-260.04-130.02zm0 151.14 142.7 71.352c5.3164 2.6562 11.57 2.6562 16.887 0l142.7-71.352 108.9 54.449-260.04 130.02-260.04-130.02z" fill="#3b6af9" fill-rule="evenodd"></path></svg>
